# xmcd
#
# Track frame offsets:
#	150
#	21894
#	43032
#	62031
#	86463
#	99563
#	115958
#	145656
#	174417
#
# Disc length: 2626 seconds
#
# Revision: 1
# Processed by: cddbd v1.5.1PL2 Copyright (c) Steve Scherf et al.
# Submitted via: audiograbber 1.83.01
#
DISCID=700a4009
DTITLE=Pumpjack - Drunk And Disorderly
DYEAR=1997
DGENRE=Country
TTITLE0=Booze Is Thicker Than Blood
TTITLE1=Drinkin' Man Do
TTITLE2=Sot
TTITLE3=Last Time
TTITLE4=High On The Hog
TTITLE5=Drown
TTITLE6=Hangover
TTITLE7=drinkin' with the lord
TTITLE8=Data Track
EXTD=
EXTT0=
EXTT1=
EXTT2=
EXTT3=
EXTT4=
EXTT5=
EXTT6=
EXTT7=
EXTT8=
PLAYORDER=
